# AST/ASF file generated using VICON BodyLanguage
# -----------------------------------------------
:version 1.10
:name VICON
:units
  mass 1.0
  length 0.45
  angle deg
:documentation
   .ast/.asf automatically generated from VICON data using
   VICON BodyBuilder and BodyLanguage model FoxedUp or BRILLIANT.MOD
:root
   order TX TY TZ RX RY RZ
   axis XYZ
   position 0 0 0  
   orientation 0 0 0 
:bonedata
  begin
     id 1 
     name lhipjoint
     direction 0.575328 -0.747301 0.332475 
     length 2.40933 
     axis 0 0 0  XYZ
  end
  begin
     id 2 
     name lfemur
     direction 0.34202 -0.939693 0  
     length 7.31453  
     axis 0 0 20  XYZ
    dof rx ry rz
    limits (-160.0 20.0)
           (-70.0 70.0)
           (-60.0 70.0)
  end
  begin
     id 3 
     name ltibia
     direction 0.34202 -0.939693 0   
     length 7.82185   
     axis 0 0 20   XYZ
    dof rx
    limits (-10.0 170.0)
  end
  begin
     id 4 
     name lfoot
     direction 0.0795993 -0.218697 0.972541   
     length 2.19173   
     axis -90 7.62852e-016 20   XYZ
    dof rx rz
    limits (-45.0 90.0)
           (-70.0 20.0)
  end
  begin
     id 5 
     name ltoes
     direction 1.53537e-011 -4.21894e-011 1   
     length 1.10023   
     axis -90 7.62852e-016 20   XYZ
    dof rx
    limits (-90.0 20.0)
  end
  begin
     id 6 
     name rhipjoint
     direction -0.513884 -0.783789 0.348708   
     length 2.29716  
     axis 0 0 0  XYZ 
  end
  begin
     id 7 
     name rfemur
     direction -0.34202 -0.939693 0   
     length 7.59573   
     axis 0 0 -20   XYZ
    dof rx ry rz
    limits (-160.0 20.0)
           (-70.0 70.0)
           (-70.0 60.0)
  end
  begin
     id 8 
     name rtibia
     direction -0.34202 -0.939693 0   
     length 7.66402   
     axis 0 0 -20   XYZ
    dof rx
    limits (-10.0 170.0)
 end
 begin
     id 9 
     name rfoot
     direction -0.137793 -0.378584 0.915253   
     length 2.27056  
     axis -90 -7.62852e-016 -20   XYZ
    dof rx rz
    limits (-45.0 90.0)
           (-20.0 70.0)
  end
  begin
     id 10 
     name rtoes
     direction -1.53493e-011 -4.22159e-011 1   
     length 1.11766   
     axis -90 -7.62852e-016 -20   XYZ
    dof rx
    limits (-90.0 20.0)
  end
  begin
     id 11 
     name lowerback
     direction -0.00732775 0.998356 -0.05685   
     length 2.16513   
     axis 0 0 0   XYZ
    dof rx ry rz
    limits (-20.0 45.0)
           (-30.0 30.0)
           (-30.0 30.0)
  end
  begin
     id 12 
     name upperback
     direction 0.0218081 0.999627 -0.0164647   
     length 2.16755   
     axis 0 0 0   XYZ
    dof rx ry rz
    limits (-20.0 45.0)
           (-30.0 30.0)
           (-30.0 30.0)
  end
  begin
     id 13 
     name thorax
     direction 0.02365 0.999661 0.0108914   
     length 2.16932   
     axis 0 0 0   XYZ
    dof rx ry rz
    limits (-20.0 45.0)
           (-30.0 30.0)
           (-30.0 30.0)
  end
  begin
     id 14 
     name lowerneck
     direction -0.0523929 0.978385 0.200044   
     length 1.63877   
     axis 0 0 0   XYZ
    dof rx ry rz
    limits (-20.0 45.0)
           (-30.0 30.0)
           (-30.0 30.0)
  end
  begin
     id 15 
     name upperneck
     direction 0.0448674 0.981321 -0.187074   
     length 1.69014   
     axis 0 0 0   XYZ
    dof rx ry rz
    limits (-20.0 45.0)
           (-30.0 30.0)
           (-30.0 30.0)
  end
  begin
     id 16
     name head
     direction 0.0199089 0.996118 -0.0857429  
     length 1.70094  
     axis 0 0 0   XYZ
    dof rx ry rz
    limits (-20.0 45.0)
           (-30.0 30.0)
           (-30.0 30.0)
  end
  begin
     id 17 
     name lclavicle
     direction 0.940366 0.30191 -0.156722  
     length 3.37521  
     axis 0 0 0   XYZ
    dof ry rz
    limits (-20.0 10.0)
           (0.0 20.0)
  end
  begin
     id 18 
     name lhumerus
     direction 1 -4.4897e-011 -1.7911e-027   
     length 5.25287   
     axis 180 -30 -90   XYZ
    dof rx ry rz
    limits (-60.0 90.0)
           (-90.0 90.0)
           (-90.0 90.0)
  end
  begin
     id 19
     name lradius
     direction 1 -4.48951e-011 1.04424e-027   
     length 3.51014   
     axis 180 -30 -90   XYZ
    dof rx
    limits (-10.0 170.0)
  end
  begin
     id 20
     name lwrist
     direction 1 -4.48997e-011 -9.5942e-028   
     length 1.75507   
     axis 8.48502e-016 90 90   XYZ
    dof ry
    limits (-180.0 0.0)
 end
  begin
     id 21 
     name lhand
     direction 1 -4.48831e-011 -1.90777e-027   
     length 0.706179   
     axis 1.22306e-015 90 90   XYZ
    dof rx rz
    limits (-90.0 90.0)
           (-45.0 45.0)
  end
  begin
     id 22 
     name lfingers
     direction 1 -4.49108e-011 -3.85244e-027   
     length 0.569339   
     axis 2.44611e-015 90 90   XYZ
    dof rx
    limits (0.0 90.0)
  end
  begin
     id 23
     name lthumb
     direction 0.707107 -6.34953e-011 0.707107   
     length 0.817461   
     axis -90 45 -1.62303e-014   XYZ
    dof rx rz
    limits (-45.0 45.0)
           (-45.0 45.0)
  end
  begin
     id 24 
     name rclavicle
     direction -0.905329 0.382405 -0.184787   
     length 3.30787  
     axis 0 0 0   XYZ 
    dof ry rz
    limits (-10.0 20.0)
           (-20.0 0.0)
  end
  begin
     id 25 
     name rhumerus
     direction -1 -4.48953e-011 -9.15316e-029  
     length 5.28721   
     axis 180 30 90   XYZ
    dof rx ry rz
    limits (-90.0 60.0)
           (-90.0 90.0)
           (-90.0 90.0)
  end
  begin
     id 26 
     name rradius
     direction -1 -4.48987e-011 9.37824e-028   
     length 3.50544   
     axis 180 30 90   XYZ
    dof rx
    limits (-10.0 170.0)
  end
  begin
     id 27 
     name rwrist
     direction -1 -4.48967e-011 -9.58414e-028   
     length 1.75272   
     axis 8.48502e-016 -90 -90   XYZ
    dof ry
    limits (-180.0 0.0)
  end
  begin
     id 28
     name rhand
     direction -1 -4.48904e-011 -1.91266e-027   
     length 0.884996   
     axis 1.22306e-015 -90 -90   XYZ
    dof rx rz
    limits (-90.0 90.0)
           (-45.0 45.0)
  end
  begin
     id 29
     name rfingers
     direction -1 -4.4909e-011 -3.85015e-027   
     length 0.713507   
     axis 2.44611e-015 -90 -90   XYZ
    dof rx
    limits (0.0 90.0)
  end
  begin
     id 30
     name rthumb
     direction -0.707107 -6.34853e-011 0.707107   
     length 1.02446   
     axis -90 -45 1.62303e-014   XYZ
    dof rx rz
    limits (-45.0 45.0)
           (-45.0 45.0)
  end
:hierarchy
  begin
    root lhipjoint rhipjoint lowerback
    lhipjoint lfemur
    lfemur ltibia
    ltibia lfoot
    lfoot ltoes
    rhipjoint rfemur
    rfemur rtibia
    rtibia rfoot
    rfoot rtoes
    lowerback upperback
    upperback thorax
    thorax lowerneck lclavicle rclavicle
    lowerneck upperneck
    upperneck head
    lclavicle lhumerus
    lhumerus lradius
    lradius lwrist
    lwrist lhand lthumb
    lhand lfingers
    rclavicle rhumerus
    rhumerus rradius
    rradius rwrist
    rwrist rhand rthumb
    rhand rfingers
  end

#!OML:ASF F:\twosubjects\two\Thursday\Session 1\justin.ASF
:FULLY-SPECIFIED
:DEGREES
189
root 16.5905 13.6703 9.76462 -299.305 -84.3351 300.384
lowerback 34.2427 4.19186 2.11845
upperback 13.0509 4.25043 -1.3439
thorax -2.7849 1.57759 -3.83912
lowerneck -17.8967 -1.26026 -7.3615
upperneck 29.606 -1.21013 4.05205
head 12.9417 -0.961526 2.61194
rclavicle 2.06736e-014 -2.34566e-014
rhumerus 69.0978 -33.3503 -69.9093
rradius 69.208
rwrist -58.9803
rhand -19.6485 -24.9621
rfingers 7.12502
rthumb 6.6791 -54.8368
lclavicle 2.06736e-014 -2.34566e-014
lhumerus -9.87272 -28.9161 85.8592
lradius 85.5567
lwrist -18.8122
lhand -23.2507 33.7785
lfingers 7.12502
lthumb 3.201 63.7342
rfemur -68.8737 -10.1691 19.0958
rtibia 67.5656
rfoot -0.914018 -4.05406
rtoes -19.0174
lfemur -74.2421 12.681 -15.1147
ltibia 72.9038
lfoot -3.04632 -10.4289
ltoes -16.0128
190
root 16.5267 13.7058 9.76067 -299.329 -84.2434 301.526
lowerback 34.281 4.37897 2.22116
upperback 12.8827 4.52925 -1.48326
thorax -2.94278 1.72817 -4.13321
lowerneck -17.7475 -1.40616 -7.24981
upperneck 29.532 -1.63787 4.59494
head 12.911 -1.06124 2.73498
rclavicle -4.94974e-014 1.25234e-014
rhumerus 68.5471 -35.4444 -68.8246
rradius 70.011
rwrist -60.0177
rhand -17.0051 -26.6735
rfingers 7.12502
rthumb 9.23045 -56.4515
lclavicle -4.94974e-014 1.25234e-014
lhumerus -10.4726 -29.6478 85.9335
lradius 86.4314
lwrist -19.1191
lhand -24.0911 33.415
lfingers 7.12502
lthumb 2.38935 63.3814
rfemur -69.7999 -10.2791 19.3339
rtibia 67.4723
rfoot -1.0252 -3.75719
rtoes -21.6178
lfemur -75.2307 12.7066 -15.2928
ltibia 72.8333
lfoot -3.08104 -10.4329
ltoes -15.6493
191
root 16.4675 13.7393 9.76508 -297.91 -84.0609 301.314
lowerback 34.0885 3.9968 1.7266
upperback 12.7146 3.94247 -1.28894
thorax -3.14612 1.42162 -3.48505
lowerneck -17.5759 -0.83247 -7.99375
upperneck 29.2877 -0.528081 4.41611
head 12.6952 -0.681408 2.96133
rclavicle -1.23246e-014 -1.86858e-014
rhumerus 69.1633 -35.1235 -68.3173
rradius 70.7583
rwrist -61.2053
rhand -16.5228 -27.3377
rfingers 7.12502
rthumb 9.69577 -57.0945
lclavicle -1.23246e-014 -1.86858e-014
lhumerus -11.5965 -27.7546 86.368
lradius 87.4407
lwrist -19.7109
lhand -24.221 33.4586
lfingers 7.12502
lthumb 2.2639 63.4263
rfemur -70.8779 -10.3454 19.7021
rtibia 67.353
rfoot -1.04631 -3.55359
rtoes -21.8462
lfemur -76.3606 12.7486 -15.3827
ltibia 72.7962
lfoot -2.93287 -10.3077
ltoes -14.6661
192
root 16.4058 13.7771 9.77354 -297.906 -83.7931 302.468
lowerback 34.2148 3.92725 2.05288
upperback 12.5199 3.97019 -1.4638
thorax -3.36807 1.45618 -3.8584
lowerneck -17.4978 -0.866098 -7.3353
upperneck 29.0987 -0.670398 4.07057
head 12.6093 -0.70869 2.68719
rclavicle 2.54444e-014 1.92821e-014
rhumerus 68.431 -37.0544 -66.9077
rradius 71.657
rwrist -63.1952
rhand -16.9579 -27.5813
rfingers 7.12502
rthumb 9.27596 -57.3573
lclavicle 2.54444e-014 1.92821e-014
lhumerus -12.0882 -28.198 86.199
lradius 88.2474
lwrist -19.8108
lhand -24.0586 33.5853
lfingers 7.12502
lthumb 2.42072 63.5513
rfemur -71.9023 -10.654 20.1246
rtibia 67.2342
rfoot -1.2087 -3.53072
rtoes -20.5792
lfemur -77.3974 12.5981 -15.4753
ltibia 72.7321
lfoot -3.46779 -10.5415
ltoes -16.3949
193
root 16.33 13.8135 9.78123 -297.425 -83.3892 303.032
lowerback 34.3172 3.76236 2.27097
upperback 12.3819 3.85368 -1.44116
thorax -3.54962 1.40698 -3.91999
lowerneck -17.76 -0.807957 -7.29903
upperneck 29.2751 -0.576813 4.05349
head 12.7289 -0.667748 2.69481
rclavicle -3.97569e-016 -2.8625e-014
rhumerus 67.849 -38.5149 -65.6568
rradius 72.4962
rwrist -65.2552
rhand -17.1358 -28.1058
rfingers 7.12502
rthumb 9.10428 -57.8893
lclavicle -3.97569e-016 -2.8625e-014
lhumerus -12.5812 -28.0271 86.2874
lradius 88.878
lwrist -19.9944
lhand -24.3384 33.8757
lfingers 7.12502
lthumb 2.15058 63.8446
rfemur -72.7113 -10.9849 20.7836
rtibia 67.0881
rfoot -1.26766 -3.42633
rtoes -21.7196
lfemur -78.2925 12.5113 -15.3593
ltibia 72.6732
lfoot -3.66068 -10.6959
ltoes -16.0798
